<svg width="1034" height="96" viewBox="0 0 1034 96" fill="none" xmlns="http://www.w3.org/2000/svg">
<path fill-rule="evenodd" clip-rule="evenodd" d="M30.208 92.288C36.608 94.5067 43.8613 95.616 51.968 95.616C59.9893 95.616 67.1573 94.5067 73.472 92.288C79.872 89.984 85.3333 86.7413 89.856 82.56C94.3787 78.3787 97.792 73.344 100.096 67.456C102.485 61.568 103.68 54.9973 103.68 47.744C103.68 40.576 102.485 34.0907 100.096 28.288C97.792 22.4 94.3787 17.3653 89.856 13.184C85.4187 8.91733 80 5.67466 73.6 3.456C67.2853 1.152 60.0747 0 51.968 0C43.8613 0 36.608 1.152 30.208 3.456C23.808 5.67466 18.3467 8.87466 13.824 13.056C9.38667 17.2373 5.97333 22.272 3.584 28.16C1.19467 34.048 0 40.576 0 47.744C0 54.9973 1.152 61.568 3.456 67.456C5.84533 73.2587 9.30133 78.2933 13.824 82.56C18.3467 86.7413 23.808 89.984 30.208 92.288ZM69.376 76.672C64.512 79.232 58.7093 80.512 51.968 80.512C46.9333 80.512 42.4107 79.7867 38.4 78.336C34.3893 76.8853 30.9333 74.7947 28.032 72.064C25.216 69.248 22.9973 65.8347 21.376 61.824C19.84 57.728 19.072 53.0347 19.072 47.744C19.072 40.7467 20.3947 34.816 23.04 29.952C25.7707 25.088 29.6107 21.4187 34.56 18.944C39.5093 16.384 45.312 15.104 51.968 15.104C56.9173 15.104 61.3973 15.8293 65.408 17.28C69.504 18.7307 72.96 20.864 75.776 23.68C78.6773 26.4107 80.8533 29.824 82.304 33.92C83.84 37.9307 84.608 42.5387 84.608 47.744C84.608 54.7413 83.2853 60.672 80.64 65.536C77.9947 70.4 74.24 74.112 69.376 76.672Z" fill="white"/>
<path d="M402.209 91.776C408.694 94.336 417.014 95.616 427.169 95.616C436.47 95.616 444.278 94.5067 450.593 92.288C456.908 89.984 461.686 86.7413 464.929 82.56C468.257 78.2933 469.921 73.2587 469.921 67.456C469.921 62.2507 469.025 57.984 467.233 54.656C465.441 51.2427 462.838 48.512 459.425 46.464C456.012 44.416 451.83 42.8373 446.881 41.728C441.932 40.6187 436.257 39.6373 429.857 38.784C423.884 38.1013 419.02 37.376 415.265 36.608C411.596 35.7547 408.908 34.5173 407.201 32.896C405.494 31.2747 404.641 28.8853 404.641 25.728C404.641 23.0827 405.452 20.8213 407.073 18.944C408.694 17.0667 411.041 15.616 414.113 14.592C417.27 13.568 421.025 13.056 425.377 13.056C429.729 13.056 433.484 13.6107 436.641 14.72C439.798 15.744 442.273 17.3227 444.065 19.456C445.942 21.5893 447.009 24.4053 447.265 27.904H466.337C465.996 22.016 464.161 17.024 460.833 12.928C457.59 8.74667 453.025 5.54667 447.137 3.328C441.249 1.10933 434.252 0 426.145 0C417.782 0 410.529 1.10933 404.385 3.328C398.326 5.46133 393.633 8.576 390.305 12.672C386.977 16.768 385.313 21.8027 385.313 27.776C385.313 32.384 386.166 36.2667 387.873 39.424C389.665 42.496 392.225 45.0133 395.553 46.976C398.966 48.9387 403.105 50.5173 407.969 51.712C412.918 52.9067 418.508 53.888 424.737 54.656C429.089 55.168 432.844 55.7227 436.001 56.32C439.244 56.832 441.932 57.5573 444.065 58.496C446.198 59.4347 447.777 60.7573 448.801 62.464C449.91 64.0853 450.465 66.2187 450.465 68.864C450.465 71.68 449.612 74.112 447.905 76.16C446.198 78.208 443.681 79.7867 440.353 80.896C437.025 81.92 432.844 82.432 427.809 82.432C422.433 82.432 417.868 81.7493 414.113 80.384C410.444 79.0187 407.628 77.056 405.665 74.496C403.702 71.8507 402.636 68.6507 402.465 64.896H382.753C382.924 70.8693 384.588 76.2027 387.745 80.896C390.902 85.504 395.724 89.1307 402.209 91.776Z" fill="white"/>
<path fill-rule="evenodd" clip-rule="evenodd" d="M467.993 94.464L509.209 1.15198H533.657L574.873 94.464H554.521L546.199 74.368H496.645L488.345 94.464H467.993ZM526.745 27.392L540.368 60.288H502.46L515.993 27.52L521.113 14.976H521.753L526.745 27.392Z" fill="white"/>
<path d="M578.943 1.15198V94.464H596.607V54.4L596.095 17.92H597.119L606.719 45.184L625.663 94.464H642.687L661.887 44.544L671.231 17.792H672.383L671.999 54.144V94.464H689.535V1.15198H660.991L642.687 52.736L634.751 74.496H633.727L625.791 52.736L607.359 1.15198H578.943Z" fill="white"/>
<path fill-rule="evenodd" clip-rule="evenodd" d="M700.353 94.464V1.15198H747.457C755.649 1.15198 762.348 2.38931 767.553 4.86398C772.844 7.25331 776.769 10.7093 779.329 15.232C781.974 19.6693 783.297 24.96 783.297 31.104C783.297 37.8453 781.804 43.4346 778.817 47.872C775.916 52.3093 771.777 55.6373 766.401 57.856C761.025 60.0746 754.668 61.184 747.329 61.184H719.169V94.464H700.353ZM745.409 47.616H719.169V16H745.409C751.297 16 755.905 17.28 759.233 19.84C762.561 22.3146 764.225 26.2826 764.225 31.744C764.225 36.608 762.689 40.4906 759.617 43.392C756.545 46.208 751.809 47.616 745.409 47.616Z" fill="white"/>
<path d="M789.138 1.15198V94.464H856.722V78.848H807.954V1.15198H789.138Z" fill="white"/>
<path d="M861.548 94.464V1.15198H939.244V16.256H880.364V40.064H932.972V54.144H880.364V79.36H939.5V94.464H861.548Z" fill="white"/>
<path fill-rule="evenodd" clip-rule="evenodd" d="M945.958 94.464V1.15198H1002.28C1006.54 1.15198 1010.38 1.53598 1013.8 2.30398C1017.21 3.07198 1020.16 4.22398 1022.63 5.75998C1025.19 7.21064 1027.28 8.95998 1028.9 11.008C1030.61 13.056 1031.85 15.4026 1032.61 18.048C1033.47 20.6933 1033.89 23.5946 1033.89 26.752C1033.89 32.7253 1032.36 37.7173 1029.29 41.728C1026.3 45.6533 1022.16 48.384 1016.87 49.92V50.816C1020.2 51.328 1022.93 52.352 1025.06 53.888C1027.28 55.3386 1028.9 57.3013 1029.93 59.776C1031.04 62.1653 1031.59 65.1093 1031.59 68.608V84.864C1031.59 86.5706 1031.63 88.192 1031.72 89.728C1031.89 91.1787 1032.23 92.7573 1032.74 94.464H1013.67C1013.24 93.0986 1012.94 91.648 1012.77 90.112C1012.69 88.4906 1012.65 86.7413 1012.65 84.864V71.552C1012.65 68.3946 1012.18 65.8773 1011.24 64C1010.38 62.0373 1008.85 60.5866 1006.63 59.648C1004.41 58.7093 1001.3 58.24 997.286 58.24H964.774V94.464H945.958ZM996.39 44.544H964.774V15.616H996.39C999.121 15.616 1001.6 15.872 1003.81 16.384C1006.12 16.896 1008.08 17.7066 1009.7 18.816C1011.32 19.9253 1012.56 21.376 1013.41 23.168C1014.27 24.96 1014.69 27.0933 1014.69 29.568C1014.69 34.0053 1013.33 37.632 1010.6 40.448C1007.95 43.1786 1003.22 44.544 996.39 44.544Z" fill="white"/>
<path d="M283.213 94.464V1.15198H306.253L358.093 70.272H358.989L358.349 40.96V1.15198H377.037V94.464H354.253L302.413 25.856H301.517L302.157 54.016V94.464H283.213Z" fill="white"/>
<path d="M198.803 1.15198V94.464H276.755V79.36H217.619V54.144H270.227V40.064H217.619V16.256H276.499V1.15198H198.803Z" fill="white"/>
<path fill-rule="evenodd" clip-rule="evenodd" d="M110.018 94.464V1.15198H157.122C165.314 1.15198 172.013 2.38931 177.218 4.86398C182.509 7.25331 186.434 10.7093 188.994 15.232C191.639 19.6693 192.962 24.96 192.962 31.104C192.962 37.8453 191.469 43.4346 188.482 47.872C185.581 52.3093 181.442 55.6373 176.066 57.856C170.69 60.0746 164.333 61.184 156.994 61.184H128.834V94.464H110.018ZM128.834 47.616H155.074C161.474 47.616 166.21 46.208 169.282 43.392C172.354 40.4906 173.89 36.608 173.89 31.744C173.89 26.2826 172.226 22.3146 168.898 19.84C165.57 17.28 160.962 16 155.074 16H128.834V47.616Z" fill="white"/>
</svg>
